<svg xmlns="http://www.w3.org/2000/svg" viewBox="0 0 400 540" font-family="Helvetica, Arial, sans-serif">
<rect width="400" height="540" fill="#ffffff"/>
<rect x="0" y="0" width="400" height="82" fill="#FDEAF7"/>
<rect x="0" y="80" width="400" height="2" fill="#EE46BC" opacity="0.35"/>
<rect x="28" y="26" width="30" height="30" rx="7" fill="#ffffff" stroke="#EE46BC" stroke-opacity="0.4"/>
<rect x="34" y="32" width="8" height="8" rx="2" fill="#EE46BC"/><rect x="44" y="32" width="8" height="8" rx="2" fill="#EE46BC" opacity="0.5"/><rect x="34" y="42" width="8" height="8" rx="2" fill="#EE46BC" opacity="0.5"/><rect x="44" y="42" width="8" height="8" rx="2" fill="#EE46BC"/>
<text x="68" y="40" fill="#0C1B22" font-size="14" font-weight="700">Croma Retail</text>
<text x="68" y="54" fill="#475467" font-size="9">Electronics store</text>
<text x="372" y="47" fill="#EE46BC" font-size="19" font-weight="800" text-anchor="end" letter-spacing="1.5">RECEIPT</text>
<text x="28" y="112" fill="#98A2B3" font-size="8" font-weight="700" letter-spacing="1">BILL TO</text>
<text x="28" y="128" fill="#0C1B22" font-size="11" font-weight="600">Walk-in customer</text>
<text x="28" y="142" fill="#475467" font-size="9">Store 041, MG Road</text>
<text x="28" y="155" fill="#475467" font-size="9">Bengaluru 560001</text>
<text x="300" y="112" fill="#98A2B3" font-size="9" text-anchor="end">Receipt No</text>
<text x="372" y="112" fill="#0C1B22" font-size="9" font-weight="600" text-anchor="end">RC-90218</text>
<text x="300" y="128" fill="#98A2B3" font-size="9" text-anchor="end">Date</text>
<text x="372" y="128" fill="#0C1B22" font-size="9" font-weight="600" text-anchor="end">Mar 07, 2025</text>
<text x="300" y="144" fill="#98A2B3" font-size="9" text-anchor="end">Cashier</text>
<text x="372" y="144" fill="#0C1B22" font-size="9" font-weight="600" text-anchor="end">T. Rao</text>
<rect x="24" y="196" width="352" height="26" rx="4" fill="#FDEAF7"/>
<text x="34" y="213" fill="#475467" font-size="8.5" font-weight="700" text-anchor="start" letter-spacing="0.5">DESCRIPTION</text>
<text x="262" y="213" fill="#475467" font-size="8.5" font-weight="700" text-anchor="middle" letter-spacing="0.5">QTY</text>
<text x="322" y="213" fill="#475467" font-size="8.5" font-weight="700" text-anchor="end" letter-spacing="0.5">PRICE</text>
<text x="366" y="213" fill="#475467" font-size="8.5" font-weight="700" text-anchor="end" letter-spacing="0.5">AMOUNT</text>
<text x="34" y="240" fill="#0C1B22" font-size="10">AirPods Pro</text>
<text x="262" y="240" fill="#475467" font-size="10" text-anchor="middle">1</text>
<text x="322" y="240" fill="#475467" font-size="10" text-anchor="end">$249.00</text>
<text x="366" y="240" fill="#0C1B22" font-size="10" font-weight="600" text-anchor="end">$249.00</text>
<line x1="24" y1="249" x2="376" y2="249" stroke="#EAECF0"/>
<text x="34" y="267" fill="#0C1B22" font-size="10">USB-C cable</text>
<text x="262" y="267" fill="#475467" font-size="10" text-anchor="middle">2</text>
<text x="322" y="267" fill="#475467" font-size="10" text-anchor="end">$19.00</text>
<text x="366" y="267" fill="#0C1B22" font-size="10" font-weight="600" text-anchor="end">$38.00</text>
<line x1="24" y1="276" x2="376" y2="276" stroke="#EAECF0"/>
<text x="34" y="294" fill="#0C1B22" font-size="10">Screen guard</text>
<text x="262" y="294" fill="#475467" font-size="10" text-anchor="middle">1</text>
<text x="322" y="294" fill="#475467" font-size="10" text-anchor="end">$12.00</text>
<text x="366" y="294" fill="#0C1B22" font-size="10" font-weight="600" text-anchor="end">$12.00</text>
<line x1="24" y1="303" x2="376" y2="303" stroke="#EAECF0"/>
<text x="300" y="329" fill="#475467" font-size="10" text-anchor="end">Subtotal</text>
<text x="366" y="329" fill="#0C1B22" font-size="10" text-anchor="end">$299.00</text>
<text x="300" y="347" fill="#475467" font-size="10" text-anchor="end">Tax</text>
<text x="366" y="347" fill="#0C1B22" font-size="10" text-anchor="end">$53.82</text>
<line x1="250" y1="354" x2="376" y2="354" stroke="#EAECF0"/>
<text x="300" y="371" fill="#0C1B22" font-size="11" font-weight="700" text-anchor="end">Total</text>
<text x="366" y="372" fill="#EE46BC" font-size="14" font-weight="800" text-anchor="end">$352.82</text>
<line x1="24" y1="500" x2="376" y2="500" stroke="#EAECF0"/>
<text x="28" y="518" fill="#98A2B3" font-size="8.5">Thank you for your business.</text>
</svg>